<?xml version="1.0" encoding="UTF-8"?>
<!--
  Placeholder "Phantom-style" ghost icon (not an official logo).
  You can replace this file with the official asset if you have the rights.
-->
<svg xmlns="http://www.w3.org/2000/svg" width="128" height="128" viewBox="0 0 128 128" role="img" aria-label="Phantom">
  <defs>
    <linearGradient id="bg" x1="0" y1="0" x2="1" y2="1">
      <stop offset="0%" stop-color="#8B5CF6"/>
      <stop offset="100%" stop-color="#6D28D9"/>
    </linearGradient>

    <linearGradient id="ghostFill" x1="0" y1="0" x2="0" y2="1">
      <stop offset="0%" stop-color="#FFFFFF" stop-opacity="0.95"/>
      <stop offset="100%" stop-color="#EDE9FE" stop-opacity="0.98"/>
    </linearGradient>

    <filter id="innerShadow" x="-50%" y="-50%" width="200%" height="200%">
      <feOffset dx="0" dy="1"/>
      <feGaussianBlur stdDeviation="1.5" result="blur"/>
      <feComposite in="SourceAlpha" in2="blur" operator="arithmetic" k2="-1" k3="1"/>
      <feColorMatrix type="matrix" values="0 0 0 0 0.12  0 0 0 0 0.08  0 0 0 0 0.25  0 0 0 0.6 0"/>
      <feComposite in2="SourceGraphic" operator="over"/>
    </filter>

    <filter id="softShadow" x="-50%" y="-50%" width="200%" height="200%">
      <feOffset dx="0" dy="8" result="off"/>
      <feGaussianBlur in="off" stdDeviation="10" result="blur"/>
      <feColorMatrix in="blur" type="matrix" values="0 0 0 0 0   0 0 0 0 0   0 0 0 0 0   0 0 0 0.25 0"/>
      <feBlend in="SourceGraphic" in2="blur" mode="normal"/>
    </filter>
  </defs>

  <!-- Rounded background tile -->
  <rect x="4" y="4" width="120" height="120" rx="28" fill="url(#bg)" filter="url(#softShadow)"/>

  <!-- Ghost body -->
  <g transform="translate(16,16)">
    <path filter="url(#innerShadow)" fill="url(#ghostFill)" d="
      M88,44
      C88,65 73,82 56,82
      c-8.5,0 -12.5,-2.2 -16.4,-4.3
      c-1.8,-1 -3.6,-1.9 -5.6,-2.3
      c-3.8,-0.7 -7.2,1.6 -9.7,3.7
      c-2.8,2.4 -6.6,1.1 -7.6,-2.4
      c-0.9,-2.8 -1,-6.4 -0.9,-9.8
      C15.9,60.3 16,53.4 16,48
      C16,26.8 33.8,10 56,10
      c22.2,0 32,14.9 32,34
      z
    "/>

    <!-- Ghost face -->
    <g transform="translate(0,4)">
      <!-- Eyes -->
      <circle cx="44" cy="44" r="6.2" fill="#1F1147" opacity="0.95"/>
      <circle cx="68" cy="44" r="6.2" fill="#1F1147" opacity="0.95"/>
      <!-- Eye shine -->
      <circle cx="42.5" cy="42.5" r="1.6" fill="#FFFFFF" opacity="0.9"/>
      <circle cx="66.5" cy="42.5" r="1.6" fill="#FFFFFF" opacity="0.9"/>

      <!-- Smile -->
      <path d="
        M40,58
        C46,64 62,64 68,58
      " fill="none" stroke="#1F1147" stroke-width="3" stroke-linecap="round" opacity="0.75"/>
    </g>

    <!-- Subtle highlight -->
    <path d="
      M58,18
      c12,2 18,10 20,20
      " fill="none" stroke="#FFFFFF" stroke-opacity="0.55" stroke-width="3" stroke-linecap="round"/>
  </g>

  <!-- Mark -->
  <title>Phantom</title>
</svg>
